<?xml version="1.0" encoding="utf-8"?><svg viewBox="0 0 238 262" xmlns="http://www.w3.org/2000/svg" xmlns:xlink="http://www.w3.org/1999/xlink"><style>:root>svg{display:none}:root>svg:target{display:block}</style><svg viewBox="0 0 41.537 42" fill="#fff" id="basket" xmlns="http://www.w3.org/2000/svg"><path d="M39.465 16.85c.57-1.97 2.072-8.706 2.072-8.706H11.832l-.194-.616C10.404 3.618 8.903 0 6.302 0H1.188a1.188 1.188 0 100 2.376h5.114c.285 0 1.351.423 3.07 5.867 1.927 6.108 4.183 13.548 4.52 14.766a2.723 2.723 0 01-.21 1.858 5.077 5.077 0 00-.406 2.069c.09 1.776 1.403 3.849 4.814 3.849h19.793a1.188 1.188 0 000-2.376H18.09c-.882 0-2.371-.207-2.44-1.592a3.036 3.036 0 01.267-1.143 5.011 5.011 0 00.266-3.298 41.384 41.384 0 00-.146-.507c4.795-.367 16.283-1.251 18.971-1.496 3.42-.31 3.886-1.554 4.456-3.523zM15.038 33.702a4.15 4.15 0 104.149 4.149 4.15 4.15 0 00-4.15-4.15zM34.175 33.702a4.15 4.15 0 104.149 4.149 4.149 4.149 0 00-4.15-4.15z"/></svg><svg viewBox="0 0 32 32" id="byself" xmlns="http://www.w3.org/2000/svg"><path fill="#fff" d="M16 0a16 16 0 1016 16A16 16 0 0016 0zm0 5.844a4.462 4.462 0 11-4.462 4.462A4.462 4.462 0 0116 5.844zm0 20.312a10.587 10.587 0 01-8.988-4.986 10.005 10.005 0 0117.976 0A10.587 10.587 0 0116 26.156z"/></svg><svg viewBox="0 0 36 32" fill="#fff" id="car" xmlns="http://www.w3.org/2000/svg"><path d="M.16 2.671A2.647 2.647 0 012.78 0h19.375v13.842H.16zM26.882 23.784a4.109 4.109 0 11-4.03 4.108 4.07 4.07 0 014.03-4.108zM9.212 23.784a4.109 4.109 0 11-4.03 4.108 4.07 4.07 0 014.03-4.108z"/><path d="M0 15.869v12.023h3.515a5.766 5.766 0 015.71-5.82 5.766 5.766 0 015.711 5.82h6.25a5.712 5.712 0 1111.42 0H36V11.473c0-4.663-3.569-7.627-11.758-7.627v12.023zM25.758 5.602c3.587 0 8.638 1.116 8.638 6.367 0 2.668.008 3.838.008 3.838h-8.646z"/></svg><svg viewBox="0 0 238 159" id="card" xmlns="http://www.w3.org/2000/svg"><path d="M220.46.665L18.063 0A17.593 17.593 0 00.4 17.531l-.4 123.157a17.583 17.583 0 0017.535 17.645l202.402.667a17.597 17.597 0 0017.657-17.531L238 18.316A17.593 17.593 0 00220.46.666zM32.269 96.625l65.949-.072.004 4.966-65.948.071zm.027 23.52l-.006-4.962 131.895-.143.002 4.962zm130.945-34.7l-.064-61.613 49.213-.055.069 61.613z"/></svg><svg viewBox="0 0 66 26" fill="#fff" id="clip" xmlns="http://www.w3.org/2000/svg"><path d="M59 0H9.17C4.104 0 0 5.82 0 13s4.105 13 9.17 13h27.672c.255 0 .462-.293.462-.654s-.207-.654-.462-.654H9.17C4.615 24.692.923 19.457.923 13S4.615 1.308 9.169 1.308H59c3.357 0 6.078 3.858 6.078 8.617s-2.72 8.617-6.077 8.617H12.553v-.006c-2.065-.138-3.71-2.554-3.71-5.516s1.645-5.378 3.71-5.516v-.006h24.29c.254 0 .46-.293.46-.654s-.206-.655-.46-.655h-24.29v.007c-2.575.139-4.632 3.14-4.632 6.824s2.057 6.685 4.632 6.824v.007H59c3.866 0 7-4.444 7-9.926S62.866 0 59 0z"/></svg><svg viewBox="0 0 40 40" fill="#fff" id="facebook" xmlns="http://www.w3.org/2000/svg"><path d="M20 0a20 20 0 1020 20A20 20 0 0020 0zm6.23 11.987H23.97c-1.77 0-2.113.842-2.113 2.077v2.723h4.223l-.55 4.265h-3.673v10.944h-4.405V21.052H13.77v-4.265h3.683v-3.145c0-3.65 2.23-5.638 5.485-5.638a30.36 30.36 0 013.291.168z"/></svg><svg viewBox="0 0 40 40" fill="#fff" id="insta" xmlns="http://www.w3.org/2000/svg"><path d="M20 16.583A3.417 3.417 0 1023.417 20 3.42 3.42 0 0020 16.583z"/><path d="M23.706 12.093h-7.412a4.646 4.646 0 00-4.64 4.64v6.533a4.646 4.646 0 004.64 4.64h7.412a4.646 4.646 0 004.64-4.64v-6.532a4.646 4.646 0 00-4.64-4.64zM20 25.311A5.311 5.311 0 1125.311 20a5.317 5.317 0 01-5.31 5.311zm5.23-9.357a1.102 1.102 0 111.102-1.102 1.102 1.102 0 01-1.102 1.102z"/><path d="M20 0a20 20 0 1020 20A20 20 0 0020 0zm10.387 23.507a6.414 6.414 0 01-6.407 6.407h-7.96a6.414 6.414 0 01-6.407-6.407v-7.014a6.414 6.414 0 016.407-6.407h7.96a6.414 6.414 0 016.407 6.407z"/></svg><svg viewBox="0 0 126.39 34.13" id="logo" xmlns="http://www.w3.org/2000/svg"><path fill="#fff" fill-rule="evenodd" d="M5.07.51C4 .37.32 0 .09 1.57a34.66 34.66 0 000 4.67v25.44c0 .45-.09 1 .23 1.37.73.77 2.76.56 3.68.54.71 0 2.8 0 2.8-1.06V17.41c0-5.15.08-10.31 0-15.47C6.78.91 6.11.63 5.07.51zM38.13.48c-1 0-2.92-.15-3.1 1.16a12.68 12.68 0 000 1.51v6.73c0 4.83-.05 9.67.15 14.5-.83-1.36-1.41-3-2.12-4.46C30.43 14.54 27.45 9.33 24.67 4 24 2.74 23.33 1.36 21.89.85a7.91 7.91 0 00-2.7-.27c-1.61 0-4.45-.49-5.11 1.48a6.63 6.63 0 00-.12 2v27.4c0 .63-.15 1.37.44 1.76 1 .64 2.84.43 3.9.31.79-.09 1.58-.25 1.67-1.14a25.86 25.86 0 000-2.92c0-7.17.2-14.38-.2-21.55a25.51 25.51 0 011.7 3.78c.37.78.74 1.55 1.14 2.31l.88 1.64q3.3 6.21 6.61 12.42c.95 1.8 1.8 4.4 3.8 5.16a11.38 11.38 0 003.87.26c1.61 0 3.28-.42 3.28-2.39V2.61v-1C40.9.34 39.11.48 38.13.48zm26.41 16.23c-2.07-1.75-4.7-2.64-7.12-3.77-2.16-1-4.62-2.69-3.65-5.43.9-2.52 4.23-2.58 6.41-2a14.32 14.32 0 013.16 1.24C64 7.07 65 8 65.56 7a7.18 7.18 0 00.2-3.1 2.31 2.31 0 00-.88-2.09A12.7 12.7 0 0058.2 0a13.4 13.4 0 00-7.13 1.62 9.36 9.36 0 00-3.46 11.85 10.6 10.6 0 004.86 4.66c2.15 1.16 4.66 1.84 6.61 3.34a3.81 3.81 0 01.92 5.46c-1.4 1.8-4.1 1.88-6.16 1.61a12.83 12.83 0 01-3.41-1c-.92-.4-1.82-1.18-2.77-1.49-1.97-.61-1.66 3.88-1.16 4.95.78 1.75 3.84 2.38 5.5 2.72a17.08 17.08 0 007.56-.12c4.79-1.19 8.12-4.94 8.12-10a8.8 8.8 0 00-3.14-6.89zM90.12.18c-7-.88-14.28 1.39-17.26 8.25a23.59 23.59 0 00-1.58 10.62 18.74 18.74 0 002.66 9.5c3.83 5.76 12.58 6.63 18.68 4.56 7.09-2.41 9.72-9.52 9.72-16.48 0-3.89-.57-8-2.84-11.31S93.82.64 90.12.18zm-1.61 28.19a9.81 9.81 0 01-6.16-.79 7.51 7.51 0 01-3.46-4.82 23.07 23.07 0 01-.63-6.83 14.48 14.48 0 011.52-6.51c2.08-3.71 6.94-4.92 10.77-3.29C94.74 7.92 95.33 13 95.33 17c0 4.73-1.33 10.45-6.82 11.37zM115.29 6h9.78c1.38 0 1.36-1.59 1.36-2.71s.06-2.69-1.26-2.75c-4.3-.16-8.63 0-12.93 0-1.82.04-4.24-.33-4.24 2.15V31.45a8 8 0 000 1c.21 1.41 2.7 1.18 3.74 1.16s2.84.07 3-1.32c.07-.76 0-1.57 0-2.34v-7.41c0-.49-.24-1.72 0-2.15.14-.27.51-.15.9-.15h7.13a10.49 10.49 0 002 0c1.43-.32 1.26-3.77.75-4.8-.37-.74-1.18-.56-1.88-.56h-7.12c-.24 0-1.62.19-1.8 0s0-1.47 0-1.73V9.38a15.72 15.72 0 010-3c.03-.47-.01-.38.57-.38z"/></svg><svg fill="#fff" viewBox="0 0 32 32" id="profile" xmlns="http://www.w3.org/2000/svg"><path d="M16 32a16 16 0 1116-16 16.018 16.018 0 01-16 16zm0-30.584A14.584 14.584 0 1030.584 16 14.6 14.6 0 0016 1.416z"/><path d="M16 1.134A14.867 14.867 0 1030.866 16 14.867 14.867 0 0016 1.134zm0 5.43a4.146 4.146 0 11-4.146 4.145A4.146 4.146 0 0116 6.564zm0 18.872a9.837 9.837 0 01-8.352-4.632 9.296 9.296 0 0116.703 0A9.837 9.837 0 0116 25.436z"/></svg><svg viewBox="0 0 226 262" id="progress" xmlns="http://www.w3.org/2000/svg"><path d="M152.847 104.193H212.9v137.603h-60.053zM82.427 143.507h60.053v98.289H82.427zM12.008 176.269h60.05v65.528h-60.05zM142.845 21.53l19.294 9.42c-41.51 98.415-148.561 89.854-148.561 89.854C117.593 143.457 158.424 89.28 184.261 45.35l18.902 11.345L193.58 0zM0 251.077h226V262H0z"/></svg><svg viewBox="0 0 48 48" id="settings" xmlns="http://www.w3.org/2000/svg"><path d="M9.716 24A14.285 14.285 0 1024 9.717 14.301 14.301 0 009.716 24.001zm24.237-.87a9.99 9.99 0 11-10.82-9.08 9.99 9.99 0 0110.82 9.08z"/><path d="M43.588 31.897l2.361-.092a1.458 1.458 0 001.263-1.006l.776-3.738a1.459 1.459 0 00-.754-1.427l-2.128-1.03a1.783 1.783 0 01-.913-1.437s-.004-.275-.06-.92l-.018-.223c-.03-.241.325-.68.79-.974l2.003-1.265a1.459 1.459 0 00.592-1.502l-1.184-3.627a1.457 1.457 0 00-1.367-.857l-2.368.171a1.691 1.691 0 01-1.449-.667c-.247-.408-.758-1.828-.502-2.314l1.101-2.092a1.453 1.453 0 00-.24-1.594l-2.843-2.545a1.456 1.456 0 00-1.613-.061l-1.96 1.329a1.69 1.69 0 01-1.586.146c-.415-.228-1.571-1.208-1.593-1.757l-.093-2.362A1.456 1.456 0 0030.8.79L27.06.012a1.454 1.454 0 00-1.426.754l-1.03 2.128a1.782 1.782 0 01-1.437.915s-.275.004-.92.059l-.224.022c-.241.03-.68-.327-.973-.792l-1.265-2.006a1.456 1.456 0 00-1.5-.59l-3.63 1.184a1.454 1.454 0 00-.858 1.366l.172 2.369a1.693 1.693 0 01-.668 1.448c-.407.248-1.825.76-2.312.503L8.895 6.271a1.455 1.455 0 00-1.595.238L4.756 9.355a1.455 1.455 0 00-.059 1.612l1.33 1.961a1.686 1.686 0 01.146 1.584c-.23.416-1.21 1.57-1.76 1.593l-2.363.092A1.458 1.458 0 00.788 17.2l-.776 3.74a1.458 1.458 0 00.755 1.426l2.13 1.03a1.776 1.776 0 01.911 1.436s.005.276.061.92l.02.224c.03.242-.325.68-.791.974l-2.005 1.264a1.456 1.456 0 00-.592 1.501l1.185 3.627a1.456 1.456 0 001.367.857l2.366-.171a1.688 1.688 0 011.448.667c.248.406.759 1.826.503 2.314l-1.1 2.092a1.454 1.454 0 00.238 1.595l2.846 2.546a1.459 1.459 0 001.613.06l1.96-1.33a1.68 1.68 0 011.585-.144c.415.229 1.57 1.208 1.592 1.757l.093 2.362a1.459 1.459 0 001.004 1.264l3.737.776a1.458 1.458 0 001.427-.753l1.033-2.13a1.786 1.786 0 011.437-.915s.275-.003.92-.057l.222-.02c.242-.031.68.324.973.79l1.265 2.006a1.453 1.453 0 001.501.593l3.628-1.186a1.456 1.456 0 00.858-1.366l-.17-2.369a1.694 1.694 0 01.667-1.448c.407-.248 1.827-.758 2.313-.503l2.094 1.1a1.454 1.454 0 001.595-.239l2.545-2.846a1.455 1.455 0 00.06-1.612l-1.33-1.96a1.685 1.685 0 01-.146-1.584c.228-.416 1.209-1.572 1.758-1.592zM24 40.277a16.277 16.277 0 1116.278-16.276A16.296 16.296 0 0124 40.277z"/></svg><svg viewBox="0 0 192 255" id="talk" xmlns="http://www.w3.org/2000/svg"><path d="M92.835 196.201c-.39.359-.79.7-1.19 1.043-.415.354-.826.7-1.248 1.037q-1.3 1.044-2.67 1.989l-18.863 38.638-3.757-22.252 5.577-8.94q-1.018.227-2.05.407a47.199 47.199 0 01-5.372.635 45.81 45.81 0 01-3.001.11 48.338 48.338 0 01-11.25-1.337l5.667 9.13-3.538 22.649-20.898-40.93q-1.442-1.15-2.797-2.407l-.384.332C6.77 213.805 1.407 240.804 0 255h118.559c-3.91-41.522-21.242-55.774-25.724-58.799z"/><path d="M60.257 115.976a44.8 44.8 0 1044.935 44.797 44.918 44.918 0 00-44.935-44.797zM188.953 225.487a.884.884 0 00-.098-1.52c-.09-.05-7.605-3.933-9.605-9.186 2.638 2.597 5.762 3.667 9.868 4.427a.89.89 0 00.98-1.206c-3.906-9.487-5.848-20.752-7.73-31.642-1.148-6.664-2.267-13.149-3.793-18.94a33.387 33.387 0 00-2.298-7.202 34.565 34.565 0 00-3.936-7.603 25.655 25.655 0 00-16.64-10.928 34.124 34.124 0 00-10.614-1.689 31.085 31.085 0 00-19.267 6.545c-5.054 3.183-8.823 7.994-11.633 14.957a50.786 50.786 0 00-3.923 12.618 31.708 31.708 0 00-.41 3.585q-.375 2.183-.713 4.518c-1.036 7.311-.289 16.853 1.133 25.908 5.944 9.472 11.873 24.321 13.955 46.871H192a83.237 83.237 0 00-6.85-27.367 36.464 36.464 0 003.803-2.146zm-20.83-5.389c-.535.664-11.146 7.561-11.146 7.561l5.218 7.1-16.522 12.937.027.06-.05-.038-.054.038.032-.06-16.522-12.937 5.216-7.1s-10.615-6.897-11.148-7.56c-.948-1.183 4.745-6.62 4.745-6.62l17.73 34.179 17.732-34.18s5.688 5.438 4.741 6.62zM136.248 0H16.223A11.84 11.84 0 004.37 11.825v64.442a11.834 11.834 0 0011.854 11.819h48.248l-1.591 20.242 17.647-20.242h55.721a11.84 11.84 0 0011.859-11.82v-64.44A11.846 11.846 0 00136.248 0zM81.736 57.116H21.813a2.072 2.072 0 110-4.144h59.923a2.072 2.072 0 110 4.144zm47.446-14.323H21.812a2.075 2.075 0 110-4.149h107.37a2.075 2.075 0 110 4.15zm0-14.321H21.812a2.072 2.072 0 110-4.145h107.37a2.072 2.072 0 110 4.145z"/><path d="M180.766 57.105h-27.299v23.262a12.77 12.77 0 01-12.773 12.737h-36.018v15.507a7.412 7.412 0 007.419 7.403h36.614l11.046 12.664-.998-12.664h22.009a7.415 7.415 0 007.418-7.403V64.503a7.41 7.41 0 00-7.418-7.398z"/></svg><svg viewBox="0 0 40 40" id="tel" xmlns="http://www.w3.org/2000/svg"><path fill="#fff" d="M20 0a20 20 0 1020 20A20 20 0 0020 0zm9.074 29.743l-.712.788a3.286 3.286 0 01-.8.644 4.608 4.608 0 01-2.815.588A18.367 18.367 0 018.421 16.997a3.988 3.988 0 01.913-3.686l.033-.037a3.28 3.28 0 01.261-.33l.713-.788a3.274 3.274 0 014.624-.231l1.202 1.086a3.275 3.275 0 01.231 4.625l-.711.787a3.265 3.265 0 01-1.483.939l-.217.065.101.202a13.79 13.79 0 007.29 6.69l.187.074.063-.19a3.256 3.256 0 01.675-1.152l.713-.787a3.272 3.272 0 014.624-.232l1.202 1.087a3.278 3.278 0 01.232 4.624zm-9.513-17.03a.763.763 0 01.763-.763 7.626 7.626 0 017.617 7.617.763.763 0 01-1.526 0 6.097 6.097 0 00-6.09-6.091.763.763 0 01-.764-.763zm11.352 7.493a.763.763 0 01-.764-.762 9.713 9.713 0 00-9.702-9.703.763.763 0 110-1.526 11.241 11.241 0 0111.229 11.229.763.763 0 01-.763.762z"/></svg></svg>